# xmcd
#
# Track frame offsets:
#	150
#	14945
#	37270
#	60370
#	81770
#	112125
#	143545
#	172795
#
# Disc length: 2712 seconds
#
# Revision: 2
# Processed by: cddbd v1.5.1PL2 Copyright (c) Steve Scherf et al.
# Submitted via: EasyCDDAExtractor 8.0.2.1
#
DISCID=670a9608
DTITLE=Black Sabbath - Palatsport Firenze 29-09-90 Disc 1
DYEAR=1990
DGENRE=Hard Rock
TTITLE0=Intro
TTITLE1=Neon Knights
TTITLE2=Iron Man
TTITLE3=Children Of The Grave
TTITLE4=Anno Mundi
TTITLE5=Headless Cross
TTITLE6=When Death Calls
TTITLE7=War Pigs
EXTD=
EXTT0=
EXTT1=
EXTT2=
EXTT3=
EXTT4=
EXTT5=
EXTT6=
EXTT7=
PLAYORDER=
